<?xml version="1.0" encoding="utf-8"?>
<!-- Generator: Adobe Illustrator 23.0.3, SVG Export Plug-In . SVG Version: 6.00 Build 0)  -->
<svg version="1.0" id="图层_1" xmlns="http://www.w3.org/2000/svg" xmlns:xlink="http://www.w3.org/1999/xlink" x="0px" y="0px"
	 viewBox="0 0 68 68" style="enable-background:new 0 0 68 68;" xml:space="preserve">
<style type="text/css">
	.st0{fill-rule:evenodd;clip-rule:evenodd;fill:#7C7C7C;}
	.st1{fill:#7C7C7C;}
	.st2{opacity:0.5;fill:#FF4A01;}
	.st3{fill:#FF4A01;}
	.st4{opacity:0.5;}
	.st5{display:none;fill:#BCBCBC;}
	.st6{fill:#7F7F7F;}
	.st7{fill:#1790FF;}
	.st8{fill:#F9AD15;}
	.st9{fill:#FA141B;}
	.st10{fill:#52C419;}
	.st11{fill-rule:evenodd;clip-rule:evenodd;fill:#FF3C3C;}
	.st12{fill-rule:evenodd;clip-rule:evenodd;fill:#52C419;}
	.st13{fill:#4689F2;}
	.st14{fill:#239BFF;}
	.st15{fill:#37D1F4;}
	.st16{fill:#0252D9;}
	.st17{fill:#E54D26;}
	.st18{fill:#0061FF;}
	.st19{fill:#1B9FFC;}
	.st20{fill:#23A54D;}
	.st21{fill-rule:evenodd;clip-rule:evenodd;fill:#111111;}
	.st22{opacity:0.5;fill-rule:evenodd;clip-rule:evenodd;fill:#111111;enable-background:new    ;}
	.st23{fill:#111111;}
	.st24{fill-rule:evenodd;clip-rule:evenodd;fill:#FF4A01;}
</style>
<path id="字节跳动小程序" class="st14" d="M34,0L34,0C15.22,0,0,15.22,0,34v0c0,18.78,15.22,34,34,34h0
	c18.78,0,34-15.22,34-34v0C68,15.22,52.78,0,34,0z M42.58,47.33L39,50.91c-1.93,1.93-4.46,2.89-7,2.89c-2.53,0-5.07-0.96-7-2.89v0
	l-7.9-7.9c-3.86-3.86-3.86-10.14,0-14l3.58-3.58c0.05-0.05,0.12-0.05,0.17,0l3.62,3.62c0.05,0.05,0.05,0.12,0,0.17l-3.49,3.49
	c-1.82,1.82-1.82,4.77,0,6.59l7.82,7.82c1.77,1.77,4.65,1.77,6.43,0l3.58-3.58c0.05-0.05,0.12-0.05,0.17,0l3.62,3.62
	C42.62,47.21,42.62,47.28,42.58,47.33z M27.09,36.02l8.96-8.87c0.05-0.05,0.12-0.05,0.17,0l4.67,4.73c0.05,0.05,0.05,0.12,0,0.17
	l-8.96,8.87c-0.05,0.05-0.12,0.05-0.17,0l-4.67-4.73C27.04,36.14,27.04,36.07,27.09,36.02z M50.91,39l-3.58,3.58
	c-0.05,0.05-0.12,0.05-0.17,0l-3.62-3.62c-0.05-0.05-0.05-0.12,0-0.17l3.58-3.58c1.77-1.77,1.77-4.65,0-6.42l-7.91-7.91
	c-0.95-0.95-2.24-1.42-3.59-1.32c-1.14,0.09-2.18,0.66-2.99,1.47l-3.43,3.43c-0.05,0.05-0.12,0.05-0.17,0l-3.62-3.62
	c-0.05-0.05-0.05-0.12,0-0.17L29,17.09c3.86-3.86,10.14-3.86,14,0L50.91,25C54.77,28.86,54.77,35.14,50.91,39z"/>
</svg>
