<svg xmlns="http://www.w3.org/2000/svg" xml:space="preserve" width="1080" height="1080"><path d="m509.92 475.968 74.032-74.032c6.248-6.246 16.376-6.246 22.624 0l11.312 11.312a16 16 0 0 1 0 22.64L543.84 509.92l74.032 74.032c6.246 6.248 6.246 16.376 0 22.624l-11.312 11.312c-6.248 6.246-16.376 6.246-22.624 0L509.92 543.84l-74.032 74.032a16 16 0 0 1-22.64 0l-11.312-11.312c-6.246-6.248-6.246-16.376 0-22.624l74.032-74.032-74.032-74.032a16 16 0 0 1 0-22.64l11.312-11.312a16 16 0 0 1 22.64 0l74.032 74.032zm0 319.856c157.904 0 285.92-128 285.92-285.92C795.84 352 667.808 224 509.92 224 352 224 224 352 224 509.92c0 157.904 128 285.92 285.92 285.92zm0 48C325.504 843.84 176 694.336 176 509.92 176 325.52 325.504 176 509.92 176c184.416 0 333.92 149.504 333.92 333.92 0 184.416-149.504 333.92-333.92 333.92z" style="stroke:none;stroke-width:1;stroke-dasharray:none;stroke-linecap:butt;stroke-dashoffset:0;stroke-linejoin:miter;stroke-miterlimit:4;fill:#333;fill-rule:nonzero;opacity:1" transform="matrix(1.58 0 0 1.58 -264.264 -264.264)"/></svg>