<?xml version="1.0" standalone="no"?><!DOCTYPE svg PUBLIC "-//W3C//DTD SVG 1.1//EN" "http://www.w3.org/Graphics/SVG/1.1/DTD/svg11.dtd"><svg class="icon" width="200px" height="200.00px" viewBox="0 0 1024 1024" version="1.1" xmlns="http://www.w3.org/2000/svg"><path fill="#333333" d="M509.92 475.968l74.032-74.032a16 16 0 0 1 22.624 0l11.312 11.312a16 16 0 0 1 0 22.64L543.84 509.92l74.032 74.032a16 16 0 0 1 0 22.624l-11.312 11.312a16 16 0 0 1-22.624 0L509.92 543.84l-74.032 74.032a16 16 0 0 1-22.64 0l-11.312-11.312a16 16 0 0 1 0-22.624l74.032-74.032-74.032-74.032a16 16 0 0 1 0-22.64l11.312-11.312a16 16 0 0 1 22.64 0l74.032 74.032z m0 319.856c157.904 0 285.92-128 285.92-285.92C795.84 352 667.808 224 509.92 224 352 224 224 352 224 509.92c0 157.904 128 285.92 285.92 285.92z m0 48C325.504 843.84 176 694.336 176 509.92 176 325.52 325.504 176 509.92 176c184.416 0 333.92 149.504 333.92 333.92 0 184.416-149.504 333.92-333.92 333.92z" /></svg>