<svg xmlns="http://www.w3.org/2000/svg" xml:space="preserve" width="1080" height="1080"><path d="M512 170.667c-188.513 0-341.333 152.82-341.333 341.333 0 188.513 152.82 341.333 341.333 341.333 188.513 0 341.333-152.82 341.333-341.333 0-188.513-152.82-341.333-341.333-341.333zM85.333 512C85.333 276.352 276.352 85.333 512 85.333c235.648 0 426.667 191.019 426.667 426.667 0 235.648-191.019 426.667-426.667 426.667-235.648 0-426.667-191.019-426.667-426.667z" style="stroke:none;stroke-width:1;stroke-dasharray:none;stroke-linecap:butt;stroke-dashoffset:0;stroke-linejoin:miter;stroke-miterlimit:4;fill:#333;fill-rule:nonzero;opacity:1" transform="matrix(1.24 0 0 1.24 -95.31 -95.31)"/></svg>