<svg xmlns="http://www.w3.org/2000/svg" xml:space="preserve" width="1080" height="1080"><path d="m899.1 869.6-53-305.6H864c14.4 0 26-11.6 26-26V346c0-14.4-11.6-26-26-26H618V138c0-14.4-11.6-26-26-26H432c-14.4 0-26 11.6-26 26v182H160c-14.4 0-26 11.6-26 26v192c0 14.4 11.6 26 26 26h17.9l-53 305.6c-.3 1.5-.4 3-.4 4.4 0 14.4 11.6 26 26 26h723c1.5 0 3-.1 4.4-.4 14.2-2.4 23.7-15.9 21.2-30zM204 390h272V182h72v208h272v104H204V390zm468 440V674c0-4.4-3.6-8-8-8h-48c-4.4 0-8 3.6-8 8v156H416V674c0-4.4-3.6-8-8-8h-48c-4.4 0-8 3.6-8 8v156H202.8l45.1-260H776l45.1 260H672z" style="stroke:none;stroke-width:1;stroke-dasharray:none;stroke-linecap:butt;stroke-dashoffset:0;stroke-linejoin:miter;stroke-miterlimit:4;fill:#333;fill-rule:nonzero;opacity:1" transform="matrix(1.35 0 0 1.35 -151.2 -143.1)"/></svg>