<svg xmlns="http://www.w3.org/2000/svg" xml:space="preserve" width="1080" height="1080"><path d="M863.2 315.8c-.2-1.4-.4-2.6-.8-4-1.5-5.5-3.9-10.6-7.8-14.5l-128-128c-6-6-14.1-9.4-22.6-9.4H320c-8.5 0-16.6 3.4-22.6 9.4l-128 128c-3.9 3.9-6.3 9-7.8 14.5-.4 1.4-.6 2.6-.8 4-.2 1.4-.8 2.7-.8 4.2v451.8c0 50.8 41.4 92.2 92.2 92.2h519.5c50.9 0 92.2-41.4 92.2-92.2V320c.1-1.5-.5-2.7-.7-4.2zm-530-91.8h357.5l64 64H269.2l64-64zM800 771.8c0 15.6-12.7 28.2-28.2 28.2H252.2c-15.6 0-28.2-12.7-28.2-28.2V352h576v419.8zm-310.6-45.2c6.2 6.2 14.4 9.4 22.6 9.4 8.2 0 16.4-3.1 22.6-9.4l76.8-76.8c12.5-12.5 12.5-32.8 0-45.2-12.5-12.4-32.8-12.5-45.2 0L544 626.8V448c0-17.7-14.3-32-32-32s-32 14.3-32 32v178.8l-22.2-22.2c-12.5-12.5-32.8-12.5-45.2 0-12.4 12.5-12.5 32.8 0 45.2l76.8 76.8z" style="stroke:none;stroke-width:1;stroke-dasharray:none;stroke-linecap:butt;stroke-dashoffset:0;stroke-linejoin:miter;stroke-miterlimit:4;fill:#333;fill-rule:nonzero;opacity:1" transform="matrix(1.51 0 0 1.51 -232.57 -232.554)"/></svg>