<svg xmlns="http://www.w3.org/2000/svg" xml:space="preserve" width="1080" height="1080"><path d="M512 85.333C276.359 85.333 85.333 276.36 85.333 512c0 235.641 191.026 426.667 426.667 426.667 235.641 0 426.667-191.026 426.667-426.667C938.667 276.359 747.64 85.333 512 85.333zm42.667 597.334c0 23.564-19.103 42.666-42.667 42.666s-42.667-19.102-42.667-42.666V469.333c0-23.564 19.103-42.666 42.667-42.666s42.667 19.102 42.667 42.666zM512 384c-23.564 0-42.667-19.103-42.667-42.667s19.103-42.666 42.667-42.666 42.667 19.102 42.667 42.666A42.667 42.667 0 0 1 512 384z" style="stroke:none;stroke-width:1;stroke-dasharray:none;stroke-linecap:butt;stroke-dashoffset:0;stroke-linejoin:miter;stroke-miterlimit:4;fill:#333;fill-rule:nonzero;opacity:1" transform="matrix(1.24 0 0 1.24 -93.93 -93.93)"/></svg>