<svg xmlns="http://www.w3.org/2000/svg" xml:space="preserve" width="1080" height="1080"><path d="M909.6 854.5 649.9 594.8C690.2 542.7 712 479 712 412c0-80.2-31.3-155.4-87.9-212.1-56.6-56.7-132-87.9-212.1-87.9s-155.5 31.3-212.1 87.9C143.2 256.5 112 331.8 112 412c0 80.1 31.3 155.5 87.9 212.1C256.5 680.8 331.8 712 412 712c67 0 130.6-21.8 182.7-62l259.7 259.6c3.2 3.2 8.4 3.2 11.6 0l43.6-43.5c3.2-3.2 3.2-8.4 0-11.6zM570.4 570.4C528 612.7 471.8 636 412 636c-59.8 0-116-23.3-158.4-65.6C211.3 528 188 471.8 188 412c0-59.8 23.3-116.1 65.6-158.4C296 211.3 352.2 188 412 188c59.8 0 116.1 23.2 158.4 65.6C612.7 296 636 352.2 636 412c0 59.8-23.3 116.1-65.6 158.4z" style="stroke:none;stroke-width:1;stroke-dasharray:none;stroke-linecap:butt;stroke-dashoffset:0;stroke-linejoin:miter;stroke-miterlimit:4;fill:#333;fill-rule:nonzero;opacity:1" transform="matrix(1.32 0 0 1.32 -134.43 -134.43)"/></svg>