<svg xmlns="http://www.w3.org/2000/svg" xml:space="preserve" width="1080" height="1080"><path d="M512 832c-176.448 0-320-143.552-320-320s143.552-320 320-320 320 143.552 320 320-143.552 320-320 320m0-704c-211.744 0-384 172.256-384 384s172.256 384 384 384 384-172.256 384-384-172.256-384-384-384m107.072 301.088L467.328 594.976l-62.112-69.6c-11.77-13.184-32-14.33-45.184-2.56-13.184 11.77-14.33 32-2.56 45.184l85.696 96a32 32 0 0 0 23.68 10.688h.192c8.96 0 17.536-3.776 23.616-10.4l175.648-192c11.93-13.043 11.027-33.287-2.016-45.216-13.043-11.93-33.287-11.027-45.216 2.016" style="stroke:none;stroke-width:1;stroke-dasharray:none;stroke-linecap:butt;stroke-dashoffset:0;stroke-linejoin:miter;stroke-miterlimit:4;fill:#333;fill-rule:nonzero;opacity:1" transform="matrix(1.37 0 0 1.37 -163.72 -163.72)"/></svg>